<?xml version="1.0" standalone="no"?><!DOCTYPE svg PUBLIC "-//W3C//DTD SVG 1.1//EN" "http://www.w3.org/Graphics/SVG/1.1/DTD/svg11.dtd"><svg t="1592039346106" class="icon" viewBox="0 0 1024 1024" version="1.1" xmlns="http://www.w3.org/2000/svg" p-id="695" xmlns:xlink="http://www.w3.org/1999/xlink" width="200" height="200"><defs><style type="text/css"></style></defs><path d="M825 880v80H199v-80h626zM512 65c175.162 0 317.863 135.783 317.863 304.199 0 107.57-91.867 258.49-274.32 459.508a60 60 0 0 1-4.253 4.238c-24.612 22.189-62.551 20.224-84.77-4.42l-5.266-5.856C283.612 624.647 194.137 475.67 194.137 369.199 194.137 200.783 336.838 65 512 65z m0 72c-136.175 0-245.863 104.37-245.863 232.199 0 82.765 82.47 220.076 248.682 405.357l-3.675-4.107 1.408-1.563c80.893-90.012 141.922-168.696 183.024-235.775l1.291-2.114c41.041-67.423 60.996-121.8 60.996-161.798C757.863 241.37 648.175 137 512 137z" fill="#474747" p-id="696"></path><path d="M512 222c-77.68 0-140.682 62.888-140.682 140.5S434.32 503 512 503c77.68 0 140.682-62.888 140.682-140.5S589.68 222 512 222z m0 80c33.53 0 60.682 27.103 60.682 60.5S545.53 423 512 423s-60.682-27.103-60.682-60.5S478.47 302 512 302z" fill="#1B69FD" p-id="697"></path></svg>